<mxfile host="app.diagrams.net" modified="2021-01-06T05:37:48.328Z" agent="5.0 (Windows NT 10.0; Win64; x64) AppleWebKit/537.36 (KHTML, like Gecko) Chrome/87.0.4280.88 Safari/537.36" etag="1DoVgCwCU_OuuWNpOtla" version="14.1.2" type="github">
  <diagram id="tc3lEOw6681RFRZdU92T" name="Page-1">
    <mxGraphModel dx="1185" dy="588" grid="1" gridSize="10" guides="1" tooltips="1" connect="1" arrows="1" fold="1" page="1" pageScale="1" pageWidth="827" pageHeight="1169" math="0" shadow="0">
      <root>
        <mxCell id="0" />
        <mxCell id="1" parent="0" />
        <mxCell id="nCcowX3dBiI-AIc2eQVW-11" style="edgeStyle=orthogonalEdgeStyle;rounded=0;orthogonalLoop=1;jettySize=auto;html=1;entryX=0.52;entryY=0;entryDx=0;entryDy=0;entryPerimeter=0;" edge="1" parent="1" source="nCcowX3dBiI-AIc2eQVW-1" target="nCcowX3dBiI-AIc2eQVW-2">
          <mxGeometry relative="1" as="geometry" />
        </mxCell>
        <mxCell id="nCcowX3dBiI-AIc2eQVW-1" value="礼物接收者人物刻画分析" style="rounded=0;whiteSpace=wrap;html=1;" vertex="1" parent="1">
          <mxGeometry x="345" y="110" width="200" height="40" as="geometry" />
        </mxCell>
        <mxCell id="nCcowX3dBiI-AIc2eQVW-13" style="edgeStyle=orthogonalEdgeStyle;rounded=0;orthogonalLoop=1;jettySize=auto;html=1;entryX=0.5;entryY=0;entryDx=0;entryDy=0;" edge="1" parent="1" source="nCcowX3dBiI-AIc2eQVW-2" target="nCcowX3dBiI-AIc2eQVW-3">
          <mxGeometry relative="1" as="geometry" />
        </mxCell>
        <mxCell id="nCcowX3dBiI-AIc2eQVW-2" value="发放礼物接收者形象因子比重问卷" style="rounded=0;whiteSpace=wrap;html=1;" vertex="1" parent="1">
          <mxGeometry x="347.5" y="180" width="187.5" height="30" as="geometry" />
        </mxCell>
        <mxCell id="nCcowX3dBiI-AIc2eQVW-14" style="edgeStyle=orthogonalEdgeStyle;rounded=0;orthogonalLoop=1;jettySize=auto;html=1;entryX=0.484;entryY=-0.05;entryDx=0;entryDy=0;entryPerimeter=0;" edge="1" parent="1" source="nCcowX3dBiI-AIc2eQVW-3" target="nCcowX3dBiI-AIc2eQVW-4">
          <mxGeometry relative="1" as="geometry" />
        </mxCell>
        <mxCell id="nCcowX3dBiI-AIc2eQVW-3" value="回收调查问卷统计因素比重" style="rounded=0;whiteSpace=wrap;html=1;" vertex="1" parent="1">
          <mxGeometry x="356.25" y="240" width="170" height="40" as="geometry" />
        </mxCell>
        <mxCell id="nCcowX3dBiI-AIc2eQVW-15" style="edgeStyle=orthogonalEdgeStyle;rounded=0;orthogonalLoop=1;jettySize=auto;html=1;entryX=0.5;entryY=0;entryDx=0;entryDy=0;" edge="1" parent="1" source="nCcowX3dBiI-AIc2eQVW-4" target="nCcowX3dBiI-AIc2eQVW-5">
          <mxGeometry relative="1" as="geometry" />
        </mxCell>
        <mxCell id="nCcowX3dBiI-AIc2eQVW-4" value="基于协同过滤算法加入人物形象刻画算法" style="rounded=0;whiteSpace=wrap;html=1;" vertex="1" parent="1">
          <mxGeometry x="322.5" y="310" width="245" height="40" as="geometry" />
        </mxCell>
        <mxCell id="nCcowX3dBiI-AIc2eQVW-16" style="edgeStyle=orthogonalEdgeStyle;rounded=0;orthogonalLoop=1;jettySize=auto;html=1;entryX=0.5;entryY=0;entryDx=0;entryDy=0;" edge="1" parent="1" source="nCcowX3dBiI-AIc2eQVW-5" target="nCcowX3dBiI-AIc2eQVW-6">
          <mxGeometry relative="1" as="geometry" />
        </mxCell>
        <mxCell id="nCcowX3dBiI-AIc2eQVW-5" value="算法实现测试部署到云端" style="rounded=0;whiteSpace=wrap;html=1;" vertex="1" parent="1">
          <mxGeometry x="340" y="380" width="210" height="35" as="geometry" />
        </mxCell>
        <mxCell id="nCcowX3dBiI-AIc2eQVW-17" style="edgeStyle=orthogonalEdgeStyle;rounded=0;orthogonalLoop=1;jettySize=auto;html=1;entryX=0.5;entryY=0;entryDx=0;entryDy=0;" edge="1" parent="1" source="nCcowX3dBiI-AIc2eQVW-6" target="nCcowX3dBiI-AIc2eQVW-7">
          <mxGeometry relative="1" as="geometry" />
        </mxCell>
        <mxCell id="nCcowX3dBiI-AIc2eQVW-6" value="flutter以及andriod客户端的开发构建" style="rounded=0;whiteSpace=wrap;html=1;" vertex="1" parent="1">
          <mxGeometry x="347.5" y="450" width="195" height="40" as="geometry" />
        </mxCell>
        <mxCell id="nCcowX3dBiI-AIc2eQVW-18" style="edgeStyle=orthogonalEdgeStyle;rounded=0;orthogonalLoop=1;jettySize=auto;html=1;entryX=0.5;entryY=0;entryDx=0;entryDy=0;" edge="1" parent="1" source="nCcowX3dBiI-AIc2eQVW-7" target="nCcowX3dBiI-AIc2eQVW-8">
          <mxGeometry relative="1" as="geometry" />
        </mxCell>
        <mxCell id="nCcowX3dBiI-AIc2eQVW-7" value="服务端，客户端，mysql的连接建立" style="rounded=0;whiteSpace=wrap;html=1;" vertex="1" parent="1">
          <mxGeometry x="345" y="520" width="200" height="40" as="geometry" />
        </mxCell>
        <mxCell id="nCcowX3dBiI-AIc2eQVW-8" value="导出app，发放测试并记录反馈" style="rounded=0;whiteSpace=wrap;html=1;" vertex="1" parent="1">
          <mxGeometry x="350" y="590" width="190" height="30" as="geometry" />
        </mxCell>
      </root>
    </mxGraphModel>
  </diagram>
</mxfile>
